<?xml version="1.0" standalone="no"?>
<!DOCTYPE svg PUBLIC "-//W3C//DTD SVG 20010904//EN"
 "http://www.w3.org/TR/2001/REC-SVG-20010904/DTD/svg10.dtd">
<svg version="1.0" xmlns="http://www.w3.org/2000/svg"
 width="320.000000pt" height="320.000000pt" viewBox="0 0 320.000000 320.000000"
 preserveAspectRatio="xMidYMid meet">

<g transform="translate(0.000000,320.000000) scale(0.100000,-0.100000)"
fill="#000000" stroke="none">
<path d="M0 1600 l0 -1600 1600 0 1600 0 0 1600 0 1600 -1600 0 -1600 0 0
-1600z m1830 515 c0 -13 -32 -15 -225 -15 -193 0 -225 2 -225 15 0 13 32 15
225 15 193 0 225 -2 225 -15z m-220 -357 c0 -14 -40 -58 -52 -58 -13 0 -10 12
12 48 19 31 40 36 40 10z m-410 -129 c0 -104 3 -124 18 -135 15 -12 10 -13
-38 -13 -48 0 -53 1 -37 13 14 11 17 30 17 125 0 94 -2 111 -16 111 -8 0 -12
5 -9 10 3 6 19 10 36 10 l29 0 0 -121z m1300 -2 c0 -78 4 -127 11 -134 9 -9
-6 -12 -57 -12 -91 0 -103 5 -120 45 -19 44 -10 95 22 125 19 17 31 21 64 16
39 -5 40 -4 40 24 0 17 -6 32 -15 35 -23 9 -7 24 26 24 l29 0 0 -123z m-1712
102 c-13 -7 -18 -23 -18 -57 l0 -46 45 44 c34 33 42 47 33 57 -8 10 -2 13 33
13 l44 0 -40 -32 c-22 -18 -50 -42 -63 -53 l-23 -20 46 -60 c26 -33 56 -68 68
-77 22 -17 21 -18 -30 -18 -42 0 -51 3 -47 14 3 8 -10 36 -30 62 l-36 47 0
-51 c0 -38 4 -54 18 -61 13 -8 3 -10 -43 -10 -52 0 -58 1 -42 13 14 11 17 30
17 116 0 86 -3 105 -17 116 -16 12 -10 13 42 13 46 0 56 -2 43 -10z m530 -6
c5 -17 -26 -29 -40 -15 -6 6 -7 15 -3 22 9 14 37 9 43 -7z m572 -13 c0 -33
-15 -41 -23 -11 -5 19 -68 38 -87 26 -6 -3 -10 -28 -10 -56 l0 -49 35 0 c22 0
38 6 41 15 11 28 24 15 24 -25 0 -44 -9 -50 -28 -20 -8 13 -23 20 -42 20 -30
0 -30 -1 -30 -55 0 -41 4 -55 14 -55 8 0 18 -4 21 -10 4 -6 -16 -10 -52 -10
-50 1 -56 2 -40 14 14 11 17 30 17 116 0 86 -3 105 -17 116 -15 11 -4 13 80
14 l97 0 0 -30z m-460 -10 c0 -24 4 -30 23 -31 l22 -2 -22 -4 c-22 -4 -23 -9
-23 -84 0 -73 2 -79 21 -79 11 0 17 -4 14 -10 -3 -5 -20 -10 -36 -10 -37 0
-49 27 -49 116 0 44 -4 64 -12 64 -7 0 -4 8 8 18 12 9 24 25 27 35 10 28 27
20 27 -13z m-343 -60 c7 -14 13 -51 13 -82 0 -34 4 -58 11 -58 5 0 7 -4 4 -10
-8 -13 -55 -13 -55 -1 0 5 -12 5 -28 -1 -32 -12 -77 -5 -85 14 -10 27 14 59
58 79 35 16 45 25 45 44 0 25 -14 34 -43 27 -12 -3 -16 -11 -12 -22 8 -25 -13
-36 -32 -17 -14 13 -13 17 6 36 32 32 100 26 118 -9z m233 -55 c0 -69 3 -86
18 -94 13 -8 4 -10 -38 -10 -48 0 -53 1 -37 13 23 18 25 143 2 152 -23 9 -7
24 26 24 l29 0 0 -85z m320 65 c11 -11 20 -24 20 -29 0 -5 3 -16 6 -25 5 -14
-4 -16 -60 -16 -62 0 -66 -1 -66 -23 0 -58 63 -80 100 -36 16 19 19 21 20 7 0
-38 -84 -63 -130 -38 -23 12 -42 74 -33 109 15 67 98 96 143 51z m415 -5 c19
-18 25 -35 25 -70 0 -62 -32 -95 -90 -95 -58 0 -90 33 -90 95 0 62 32 95 90
95 30 0 47 -6 65 -25z m210 0 c19 -18 25 -35 25 -70 0 -61 -32 -95 -88 -95
-63 0 -87 26 -87 95 0 48 4 60 24 76 34 28 96 25 126 -6z m-435 -560 c0 -13
-32 -15 -225 -15 -193 0 -225 2 -225 15 0 13 32 15 225 15 193 0 225 -2 225
-15z"/>
<path d="M2390 1640 c-28 -28 -28 -102 0 -130 17 -17 24 -18 45 -8 24 11 26
15 23 76 -3 57 -6 66 -26 73 -17 6 -27 4 -42 -11z"/>
<path d="M1020 1567 c-28 -14 -35 -60 -10 -64 27 -5 42 13 38 45 -3 30 -4 31
-28 19z"/>
<path d="M1562 1644 c-12 -8 -22 -24 -22 -35 0 -16 7 -19 40 -19 36 0 40 3 40
25 0 33 -30 49 -58 29z"/>
<path d="M1950 1612 c-8 -24 -9 -50 -3 -72 8 -30 14 -35 41 -38 28 -3 32 0 41
35 7 27 7 50 0 76 -9 32 -14 37 -39 37 -25 0 -31 -5 -40 -38z"/>
<path d="M2190 1652 c-24 -8 -30 -23 -30 -77 0 -54 6 -69 30 -77 25 -9 49 11
56 46 12 68 -16 122 -56 108z"/>
</g>
</svg>
